<?xml version="1.0" encoding="us-ascii" standalone="no"?><svg xmlns="http://www.w3.org/2000/svg" xmlns:xlink="http://www.w3.org/1999/xlink" contentStyleType="text/css" height="722.9167px" preserveAspectRatio="none" style="width:4661px;height:722px;" version="1.1" viewBox="0 0 4661 722" width="4661.4583px" zoomAndPan="magnify"><defs/><g><rect fill="none" height="66.6208" id="_title" rx="7.2917" ry="7.2917" style="stroke:#BABDBF;stroke-width:1.0416666666666667;" width="423.9583" x="2114.5156" y="20.8333"/><text fill="#2FA4E7" font-family="Helvetica Neue" font-size="18.75" font-weight="bold" lengthAdjust="spacing" textLength="284.375" x="2184.3073" y="50.075">TheBunny &#8212; Use Case Diagram</text><text fill="#2FA4E7" font-family="Helvetica Neue" font-size="18.75" font-weight="bold" lengthAdjust="spacing" textLength="403.125" x="2124.9323" y="72.9688">B&#7889;n vai tr&#242; ng&#432;&#7901;i d&#249;ng v&#224; ph&#7841;m vi nghi&#7879;p v&#7909;</text><!--cluster SYS--><g id="cluster_SYS"><rect fill="none" height="423.0208" rx="7.2917" ry="7.2917" style="stroke:#94A3B8;stroke-width:2.0833333333333335;" width="4045.8333" x="523.5417" y="288.5688"/><text fill="#2FA4E7" font-family="Helvetica Neue" font-size="12.5" font-weight="bold" lengthAdjust="spacing" textLength="105.2083" x="2493.8542" y="307.3688">TheBunny System</text></g><!--cluster P1--><g id="cluster_P1"><rect fill="#E0E7FF" height="98.5" rx="7.2917" ry="7.2917" style="stroke:#94A3B8;stroke-width:2.0833333333333335;" width="619.7917" x="3279.7917" y="341.0167"/><text fill="#2FA4E7" font-family="Helvetica Neue" font-size="12.5" font-weight="bold" lengthAdjust="spacing" textLength="108.3333" x="3535.5208" y="359.8167">T&#224;i kho&#7843;n &amp; H&#7891; s&#417;</text></g><!--cluster P2--><g id="cluster_P2"><rect fill="#DCFCE7" height="222.7708" rx="7.2917" ry="7.2917" style="stroke:#94A3B8;stroke-width:2.0833333333333335;" width="619.7917" x="3924.5833" y="340.9854"/><text fill="#2FA4E7" font-family="Helvetica Neue" font-size="12.5" font-weight="bold" lengthAdjust="spacing" textLength="70.8333" x="4199.0625" y="359.7854">M&#7841;ng x&#227; h&#7897;i</text></g><!--cluster P3--><g id="cluster_P3"><rect fill="#FEF9C3" height="98.5" rx="7.2917" ry="7.2917" style="stroke:#94A3B8;stroke-width:2.0833333333333335;" width="342.7083" x="2520.4167" y="341.0167"/><text fill="#2FA4E7" font-family="Helvetica Neue" font-size="12.5" font-weight="bold" lengthAdjust="spacing" textLength="48.9583" x="2667.2917" y="359.8167">Nh&#7855;n tin</text></g><!--cluster P4--><g id="cluster_P4"><rect fill="#FCE7F3" height="101.3125" rx="7.2917" ry="7.2917" style="stroke:#94A3B8;stroke-width:2.0833333333333335;" width="936.4583" x="1558.9583" y="339.6104"/><text fill="#2FA4E7" font-family="Helvetica Neue" font-size="12.5" font-weight="bold" lengthAdjust="spacing" textLength="45.8333" x="2004.2708" y="358.4104">H&#7885;c t&#7853;p</text></g><!--cluster P5--><g id="cluster_P5"><rect fill="#F3E8FF" height="225.1979" rx="7.2917" ry="7.2917" style="stroke:#94A3B8;stroke-width:2.0833333333333335;" width="366.6667" x="2888.125" y="341.0167"/><text fill="#2FA4E7" font-family="Helvetica Neue" font-size="12.5" font-weight="bold" lengthAdjust="spacing" textLength="114.5833" x="3014.1667" y="359.8167">Luy&#7879;n t&#7853;p &amp; Thi &#273;&#7845;u</text></g><!--cluster P6--><g id="cluster_P6"><rect fill="#FFF7ED" height="98.7083" rx="7.2917" ry="7.2917" style="stroke:#94A3B8;stroke-width:2.0833333333333335;" width="394.7917" x="1139.1667" y="340.9125"/><text fill="#2FA4E7" font-family="Helvetica Neue" font-size="12.5" font-weight="bold" lengthAdjust="spacing" textLength="79.1667" x="1296.9792" y="359.7125">Qu&#7843;n l&#253; &#273;&#7873; thi</text></g><!--cluster P7--><g id="cluster_P7"><rect fill="#F1F5F9" height="345.6771" rx="7.2917" ry="7.2917" style="stroke:#94A3B8;stroke-width:2.0833333333333335;" width="565.625" x="548.5417" y="340.9125"/><text fill="#2FA4E7" font-family="Helvetica Neue" font-size="12.5" font-weight="bold" lengthAdjust="spacing" textLength="66.6667" x="798.0208" y="359.7125">Ki&#7875;m duy&#7879;t</text></g><g id="elem_UC_DK"><ellipse cx="3346.456" cy="403.2873" fill="#FFFFFF" rx="49.5289" ry="19.5623" style="stroke:#CBD5E1;stroke-width:2.0833333333333335;"/><text fill="#2FA4E7" font-family="Helvetica Neue" font-size="12.5" lengthAdjust="spacing" textLength="44.7917" x="3324.0601" y="405.9977">&#272;&#259;ng k&#253;</text></g><g id="elem_UC_DN"><ellipse cx="3486.0432" cy="403.2873" fill="#FFFFFF" rx="61.314" ry="19.5623" style="stroke:#CBD5E1;stroke-width:2.0833333333333335;"/><text fill="#2FA4E7" font-family="Helvetica Neue" font-size="12.5" lengthAdjust="spacing" textLength="61.4583" x="3455.314" y="405.9977">&#272;&#259;ng nh&#7853;p</text></g><g id="elem_UC_HS"><ellipse cx="3656.8711" cy="403.2873" fill="#FFFFFF" rx="80.4648" ry="19.5623" style="stroke:#CBD5E1;stroke-width:2.0833333333333335;"/><text fill="#2FA4E7" font-family="Helvetica Neue" font-size="12.5" lengthAdjust="spacing" textLength="88.5417" x="3612.6002" y="405.9977">C&#7853;p nh&#7853;t h&#7891; s&#417;</text></g><g id="elem_UC_DX"><ellipse cx="3824.5865" cy="403.2873" fill="#FFFFFF" rx="58.3677" ry="19.5623" style="stroke:#CBD5E1;stroke-width:2.0833333333333335;"/><text fill="#2FA4E7" font-family="Helvetica Neue" font-size="12.5" lengthAdjust="spacing" textLength="57.2917" x="3795.9406" y="405.9977">&#272;&#259;ng xu&#7845;t</text></g><g id="elem_UC_FD"><ellipse cx="4233.9587" cy="527.5269" fill="#FFFFFF" rx="53.9483" ry="19.5623" style="stroke:#CBD5E1;stroke-width:2.0833333333333335;"/><text fill="#2FA4E7" font-family="Helvetica Neue" font-size="12.5" lengthAdjust="spacing" textLength="51.0417" x="4208.4379" y="530.2373">Xem feed</text></g><g id="elem_UC_PB"><ellipse cx="3993.3293" cy="403.2873" fill="#FFFFFF" rx="52.4752" ry="19.5623" style="stroke:#CBD5E1;stroke-width:2.0833333333333335;"/><text fill="#2FA4E7" font-family="Helvetica Neue" font-size="12.5" lengthAdjust="spacing" textLength="48.9583" x="3968.8502" y="405.9977">&#272;&#259;ng b&#224;i</text></g><g id="elem_UC_BL"><ellipse cx="4159.9975" cy="403.287" fill="#FFFFFF" rx="85.4663" ry="19.5933" style="stroke:#CBD5E1;stroke-width:2.0833333333333335;"/><text fill="#2FA4E7" font-family="Helvetica Neue" font-size="12.5" lengthAdjust="spacing" textLength="95.8333" x="4112.0808" y="405.9974">B&#236;nh lu&#7853;n / Th&#237;ch</text></g><g id="elem_UC_CS"><ellipse cx="4337.0818" cy="403.2873" fill="#FFFFFF" rx="62.0506" ry="19.5623" style="stroke:#CBD5E1;stroke-width:2.0833333333333335;"/><text fill="#2FA4E7" font-family="Helvetica Neue" font-size="12.5" lengthAdjust="spacing" textLength="62.5" x="4305.8318" y="405.9977">Chia s&#7867; b&#224;i</text></g><g id="elem_UC_KB"><ellipse cx="4477.706" cy="403.2873" fill="#FFFFFF" rx="49.5289" ry="19.5623" style="stroke:#CBD5E1;stroke-width:2.0833333333333335;"/><text fill="#2FA4E7" font-family="Helvetica Neue" font-size="12.5" lengthAdjust="spacing" textLength="44.7917" x="4455.3101" y="405.9977">K&#7871;t b&#7841;n</text></g><g id="elem_UC_TC"><ellipse cx="2599.5788" cy="403.2873" fill="#FFFFFF" rx="62.7871" ry="19.5623" style="stroke:#CBD5E1;stroke-width:2.0833333333333335;"/><text fill="#2FA4E7" font-family="Helvetica Neue" font-size="12.5" lengthAdjust="spacing" textLength="63.5417" x="2567.808" y="405.9977">Tr&#242; chuy&#7879;n</text></g><g id="elem_UC_TB"><ellipse cx="2769.3727" cy="403.2873" fill="#FFFFFF" rx="77.5185" ry="19.5623" style="stroke:#CBD5E1;stroke-width:2.0833333333333335;"/><text fill="#2FA4E7" font-family="Helvetica Neue" font-size="12.5" lengthAdjust="spacing" textLength="84.375" x="2727.1852" y="405.9977">Xem th&#244;ng b&#225;o</text></g><g id="elem_UC_DL"><ellipse cx="2205.8368" cy="403.2873" fill="#FFFFFF" rx="81.2014" ry="19.5623" style="stroke:#CBD5E1;stroke-width:2.0833333333333335;"/><text fill="#2FA4E7" font-family="Helvetica Neue" font-size="12.5" lengthAdjust="spacing" textLength="89.5833" x="2161.0451" y="405.9977">Xem / t&#7843;i t&#224;i li&#7879;u</text></g><g id="elem_UC_TL"><ellipse cx="2022.4949" cy="403.2873" fill="#FFFFFF" rx="73.0991" ry="19.5623" style="stroke:#CBD5E1;stroke-width:2.0833333333333335;"/><text fill="#2FA4E7" font-family="Helvetica Neue" font-size="12.5" lengthAdjust="spacing" textLength="78.125" x="1983.4324" y="405.9977">T&#7843;i l&#234;n t&#224;i li&#7879;u</text></g><g id="elem_UC_DKSK"><ellipse cx="2397.5035" cy="403.2873" fill="#FFFFFF" rx="81.2014" ry="19.5623" style="stroke:#CBD5E1;stroke-width:2.0833333333333335;"/><text fill="#2FA4E7" font-family="Helvetica Neue" font-size="12.5" lengthAdjust="spacing" textLength="89.5833" x="2352.7118" y="405.9977">&#272;&#259;ng k&#253; s&#7921; ki&#7879;n</text></g><g id="elem_UC_SK"><ellipse cx="1854.7885" cy="403.2873" fill="#FFFFFF" rx="64.9968" ry="19.5623" style="stroke:#CBD5E1;stroke-width:2.0833333333333335;"/><text fill="#2FA4E7" font-family="Helvetica Neue" font-size="12.5" lengthAdjust="spacing" textLength="66.6667" x="1821.4552" y="405.9977">T&#7841;o s&#7921; ki&#7879;n</text></g><g id="elem_UC_DSK"><ellipse cx="1668.3327" cy="403.2894" fill="#FFFFFF" rx="92.3535" ry="20.9707" style="stroke:#CBD5E1;stroke-width:2.0833333333333335;"/><text fill="#2FA4E7" font-family="Helvetica Neue" font-size="12.5" lengthAdjust="spacing" textLength="114.5833" x="1611.041" y="405.9999">Duy&#7879;t th&#224;nh vi&#234;n SK</text></g><g id="elem_UC_LT"><ellipse cx="3071.4589" cy="527.5251" fill="#FFFFFF" rx="97.5943" ry="22.0189" style="stroke:#CBD5E1;stroke-width:2.0833333333333335;"/><text fill="#2FA4E7" font-family="Helvetica Neue" font-size="12.5" lengthAdjust="spacing" textLength="128.125" x="3007.3964" y="530.2355">Luy&#7879;n t&#7853;p tr&#7855;c nghi&#7879;m</text></g><g id="elem_UC_PVP"><ellipse cx="2982.9218" cy="403.2873" fill="#FFFFFF" rx="78.2551" ry="19.5623" style="stroke:#CBD5E1;stroke-width:2.0833333333333335;"/><text fill="#2FA4E7" font-family="Helvetica Neue" font-size="12.5" lengthAdjust="spacing" textLength="85.4167" x="2940.2134" y="405.9977">Th&#225;ch &#273;&#7845;u PvP</text></g><g id="elem_UC_HT"><ellipse cx="3164.169" cy="403.2873" fill="#FFFFFF" rx="73.8357" ry="19.5623" style="stroke:#CBD5E1;stroke-width:2.0833333333333335;"/><text fill="#2FA4E7" font-family="Helvetica Neue" font-size="12.5" lengthAdjust="spacing" textLength="79.1667" x="3124.5857" y="405.9977">Xem h&#7841;ng th&#417;</text></g><g id="elem_UC_BD"><ellipse cx="1236.0377" cy="403.2873" fill="#FFFFFF" rx="80.4648" ry="19.5623" style="stroke:#CBD5E1;stroke-width:2.0833333333333335;"/><text fill="#2FA4E7" font-family="Helvetica Neue" font-size="12.5" lengthAdjust="spacing" textLength="88.5417" x="1191.7669" y="405.9977">T&#7841;o / s&#7917;a b&#7897; &#273;&#7873;</text></g><g id="elem_UC_CH"><ellipse cx="1431.8777" cy="403.288" fill="#FFFFFF" rx="85.836" ry="19.6672" style="stroke:#CBD5E1;stroke-width:2.0833333333333335;"/><text fill="#2FA4E7" font-family="Helvetica Neue" font-size="12.5" lengthAdjust="spacing" textLength="96.875" x="1383.4402" y="405.9985">T&#7841;o / s&#7917;a c&#226;u h&#7887;i</text></g><g id="elem_UC_BC"><ellipse cx="1014.1715" cy="403.2873" fill="#FFFFFF" rx="83.4111" ry="19.5623" style="stroke:#CBD5E1;stroke-width:2.0833333333333335;"/><text fill="#2FA4E7" font-family="Helvetica Neue" font-size="12.5" lengthAdjust="spacing" textLength="92.7083" x="967.8173" y="405.9977">B&#225;o c&#225;o vi ph&#7841;m</text></g><g id="elem_UC_DBC"><ellipse cx="642.291" cy="527.5269" fill="#FFFFFF" rx="74.5722" ry="19.5623" style="stroke:#CBD5E1;stroke-width:2.0833333333333335;"/><text fill="#2FA4E7" font-family="Helvetica Neue" font-size="12.5" lengthAdjust="spacing" textLength="80.2083" x="602.1868" y="530.2373">Duy&#7879;t b&#225;o c&#225;o</text></g><g id="elem_UC_KTK"><ellipse cx="642.2894" cy="650.3602" fill="#FFFFFF" rx="77.5185" ry="19.5623" style="stroke:#CBD5E1;stroke-width:2.0833333333333335;"/><text fill="#2FA4E7" font-family="Helvetica Neue" font-size="12.5" lengthAdjust="spacing" textLength="84.375" x="600.1019" y="653.0706">Kho&#225; t&#224;i kho&#7843;n</text></g><g id="elem_UC_BCTK"><ellipse cx="650.6277" cy="403.288" fill="#FFFFFF" rx="85.836" ry="19.6672" style="stroke:#CBD5E1;stroke-width:2.0833333333333335;"/><text fill="#2FA4E7" font-family="Helvetica Neue" font-size="12.5" lengthAdjust="spacing" textLength="96.875" x="602.1902" y="405.9985">B&#225;o c&#225;o th&#7889;ng k&#234;</text></g><g id="elem_UC_QLU"><ellipse cx="833.9535" cy="403.2873" fill="#FFFFFF" rx="67.9431" ry="19.5623" style="stroke:#CBD5E1;stroke-width:2.0833333333333335;"/><text fill="#2FA4E7" font-family="Helvetica Neue" font-size="12.5" lengthAdjust="spacing" textLength="70.8333" x="798.5369" y="405.9977">Qu&#7843;n l&#253; user</text></g><!--entity ND--><g id="elem_ND"><ellipse cx="3164.1667" cy="173.9333" fill="none" rx="16.6667" ry="16.6667" style="stroke:#1E293B;stroke-width:1.4583333333333333;"/><path d="M3164.1667,194.7667 C3168.3333,194.7667 3171.4583,194.7667 3175.625,190.6 C3183.9583,190.6 3192.2917,198.9333 3192.2917,207.2667 L3192.2917,211.4333 C3192.2917,215.6 3188.125,219.7667 3183.9583,219.7667 L3144.375,219.7667 C3140.2083,219.7667 3136.0417,215.6 3136.0417,211.4333 L3136.0417,207.2667 C3136.0417,198.9333 3144.375,190.6 3152.7083,190.6 C3156.875,194.7667 3160,194.7667 3164.1667,194.7667 " fill="none" style="stroke:#1E293B;stroke-width:1.4583333333333333;"/><text fill="#2FA4E7" font-family="Helvetica Neue" font-size="12.5" font-weight="bold" lengthAdjust="spacing" textLength="72.9167" x="3127.7083" y="237.9417">Ng&#432;&#7901;i d&#249;ng</text></g><!--entity HS--><g id="elem_HS"><ellipse cx="2795.4167" cy="173.9333" fill="none" rx="16.6667" ry="16.6667" style="stroke:#1E293B;stroke-width:1.4583333333333333;"/><path d="M2795.4167,194.7667 C2799.5833,194.7667 2802.7083,194.7667 2806.875,190.6 C2815.2083,190.6 2823.5417,198.9333 2823.5417,207.2667 L2823.5417,211.4333 C2823.5417,215.6 2819.375,219.7667 2815.2083,219.7667 L2775.625,219.7667 C2771.4583,219.7667 2767.2917,215.6 2767.2917,211.4333 L2767.2917,207.2667 C2767.2917,198.9333 2775.625,190.6 2783.9583,190.6 C2788.125,194.7667 2791.25,194.7667 2795.4167,194.7667 " fill="none" style="stroke:#1E293B;stroke-width:1.4583333333333333;"/><text fill="#2FA4E7" font-family="Helvetica Neue" font-size="12.5" font-weight="bold" lengthAdjust="spacing" textLength="51.0417" x="2769.8958" y="237.9417">H&#7885;c sinh</text></g><!--entity SV--><g id="elem_SV"><ellipse cx="2367.2917" cy="173.9333" fill="none" rx="16.6667" ry="16.6667" style="stroke:#1E293B;stroke-width:1.4583333333333333;"/><path d="M2367.2917,194.7667 C2371.4583,194.7667 2374.5833,194.7667 2378.75,190.6 C2387.0833,190.6 2395.4167,198.9333 2395.4167,207.2667 L2395.4167,211.4333 C2395.4167,215.6 2391.25,219.7667 2387.0833,219.7667 L2347.5,219.7667 C2343.3333,219.7667 2339.1667,215.6 2339.1667,211.4333 L2339.1667,207.2667 C2339.1667,198.9333 2347.5,190.6 2355.8333,190.6 C2360,194.7667 2363.125,194.7667 2367.2917,194.7667 " fill="none" style="stroke:#1E293B;stroke-width:1.4583333333333333;"/><text fill="#2FA4E7" font-family="Helvetica Neue" font-size="12.5" font-weight="bold" lengthAdjust="spacing" textLength="53.125" x="2340.7292" y="237.9417">Sinh vi&#234;n</text></g><!--entity GV--><g id="elem_GV"><ellipse cx="1668.3333" cy="173.9333" fill="none" rx="16.6667" ry="16.6667" style="stroke:#1E293B;stroke-width:1.4583333333333333;"/><path d="M1668.3333,194.7667 C1672.5,194.7667 1675.625,194.7667 1679.7917,190.6 C1688.125,190.6 1696.4583,198.9333 1696.4583,207.2667 L1696.4583,211.4333 C1696.4583,215.6 1692.2917,219.7667 1688.125,219.7667 L1648.5417,219.7667 C1644.375,219.7667 1640.2083,215.6 1640.2083,211.4333 L1640.2083,207.2667 C1640.2083,198.9333 1648.5417,190.6 1656.875,190.6 C1661.0417,194.7667 1664.1667,194.7667 1668.3333,194.7667 " fill="none" style="stroke:#1E293B;stroke-width:1.4583333333333333;"/><text fill="#2FA4E7" font-family="Helvetica Neue" font-size="12.5" font-weight="bold" lengthAdjust="spacing" textLength="54.1667" x="1641.25" y="237.9417">Gi&#225;o vi&#234;n</text></g><!--entity QTV--><g id="elem_QTV"><ellipse cx="495.4167" cy="173.9333" fill="none" rx="16.6667" ry="16.6667" style="stroke:#1E293B;stroke-width:1.4583333333333333;"/><path d="M495.4167,194.7667 C499.5833,194.7667 502.7083,194.7667 506.875,190.6 C515.2083,190.6 523.5417,198.9333 523.5417,207.2667 L523.5417,211.4333 C523.5417,215.6 519.375,219.7667 515.2083,219.7667 L475.625,219.7667 C471.4583,219.7667 467.2917,215.6 467.2917,211.4333 L467.2917,207.2667 C467.2917,198.9333 475.625,190.6 483.9583,190.6 C488.125,194.7667 491.25,194.7667 495.4167,194.7667 " fill="none" style="stroke:#1E293B;stroke-width:1.4583333333333333;"/><text fill="#2FA4E7" font-family="Helvetica Neue" font-size="12.5" font-weight="bold" lengthAdjust="spacing" textLength="73.9583" x="458.4375" y="237.9417">Qu&#7843;n tr&#7883; vi&#234;n</text></g><g id="elem_GMN78"><path d="M3234.4792,177.725 L3234.4792,196.1417 L3205.25,200.3083 L3234.4792,204.475 L3234.4792,222.901 A7.2917,7.2917 0 0 0 3241.7708,230.1927 L3417.8125,230.1927 A7.2917,7.2917 0 0 0 3425.1042,222.901 L3425.1042,180.85 L3414.6875,170.4333 L3241.7708,170.4333 A7.2917,7.2917 0 0 0 3234.4792,177.725 " fill="#FFFBEB" style="stroke:#FCD34D;stroke-width:1.0416666666666667;"/><path d="M3414.6875,170.4333 L3414.6875,177.2042 A3.6458,3.6458 0 0 0 3418.3333,180.85 L3425.1042,180.85 L3414.6875,170.4333 " fill="#FFFBEB" style="stroke:#FCD34D;stroke-width:1.0416666666666667;"/><text fill="#78350F" font-family="Helvetica Neue" font-size="11.4583" lengthAdjust="spacing" textLength="117.7083" x="3244.8958" y="191.0375">L&#7899;p g&#7889;c "Ng&#432;&#7901;i d&#249;ng"</text><text fill="#78350F" font-family="Helvetica Neue" font-size="11.4583" lengthAdjust="spacing" textLength="160.4167" x="3244.8958" y="204.7073">gom c&#225;c use case d&#249;ng chung.</text><text fill="#78350F" font-family="Helvetica Neue" font-size="11.4583" lengthAdjust="spacing" textLength="128.125" x="3244.8958" y="218.3771">4 vai tr&#242; k&#7871; th&#7915;a to&#224;n b&#7897;.</text></g><g id="elem_GMN81"><path d="M317.8125,387.3813 L317.8125,419.2083 A7.2917,7.2917 0 0 0 325.1042,426.5 L499.0625,426.5 A7.2917,7.2917 0 0 0 506.3542,419.2083 L506.3542,390.5063 L495.9375,380.0896 L325.1042,380.0896 A7.2917,7.2917 0 0 0 317.8125,387.3813 " fill="#FFFBEB" style="stroke:#FCD34D;stroke-width:1.0416666666666667;"/><path d="M495.9375,380.0896 L495.9375,386.8604 A3.6458,3.6458 0 0 0 499.5833,390.5063 L506.3542,390.5063 L495.9375,380.0896 " fill="#FFFBEB" style="stroke:#FCD34D;stroke-width:1.0416666666666667;"/><text fill="#78350F" font-family="Helvetica Neue" font-size="11.4583" lengthAdjust="spacing" textLength="60.4167" x="328.2292" y="401.0146">GV l&#224; ng&#432;&#7901;i</text><text fill="#78350F" font-family="Helvetica Neue" font-size="11.4583" font-weight="bold" lengthAdjust="spacing" textLength="47.9167" x="391.7708" y="400.9688">s&#7843;n xu&#7845;t</text><text fill="#78350F" font-family="Helvetica Neue" font-size="11.4583" lengthAdjust="spacing" textLength="158.3333" x="328.2292" y="414.6844">n&#7897;i dung h&#7885;c t&#7853;p tr&#234;n h&#7879; th&#7889;ng.</text></g><g id="elem_GMN84"><path d="M122.5,387.3813 L122.5,419.2083 A7.2917,7.2917 0 0 0 129.7917,426.5 L281.875,426.5 A7.2917,7.2917 0 0 0 289.1667,419.2083 L289.1667,390.5063 L278.75,380.0896 L129.7917,380.0896 A7.2917,7.2917 0 0 0 122.5,387.3813 " fill="#FFFBEB" style="stroke:#FCD34D;stroke-width:1.0416666666666667;"/><path d="M278.75,380.0896 L278.75,386.8604 A3.6458,3.6458 0 0 0 282.3958,390.5063 L289.1667,390.5063 L278.75,380.0896 " fill="#FFFBEB" style="stroke:#FCD34D;stroke-width:1.0416666666666667;"/><text fill="#78350F" font-family="Helvetica Neue" font-size="11.4583" lengthAdjust="spacing" textLength="72.9167" x="132.9167" y="401.0146">QTV th&#7921;c hi&#7879;n</text><text fill="#78350F" font-family="Helvetica Neue" font-size="11.4583" font-weight="bold" lengthAdjust="spacing" textLength="60.4167" x="208.9583" y="400.9688">ki&#7875;m duy&#7879;t</text><text fill="#78350F" font-family="Helvetica Neue" font-size="11.4583" lengthAdjust="spacing" textLength="106.25" x="132.9167" y="414.6844">v&#224; qu&#7843;n l&#253; v&#7853;n h&#224;nh.</text></g><!--link HS to ND--><g id="link_HS_ND"><path d="M2825.3021,200.3083 C2924.5833,200.3083 3005.1042,200.3083 3104.3854,200.3083 " fill="none" id="HS-to-ND" style="stroke:#94A3B8;stroke-width:1.1458333333333335;"/><polygon fill="none" points="3123.1354,200.3083,3104.3854,194.0583,3104.3854,206.5583,3123.1354,200.3083" style="stroke:#94A3B8;stroke-width:1.1458333333333335;"/></g><!--link SV to ND--><g id="link_SV_ND"><path d="M2398.3229,191.8917 C2472.1563,172.8604 2664.1979,129.1729 2825.625,142.7875 C2934.0417,151.9333 3041.6062,173.2888 3104.9603,187.0804 " fill="none" id="SV-to-ND" style="stroke:#94A3B8;stroke-width:1.1458333333333335;"/><polygon fill="none" points="3123.2813,191.0688,3106.2898,180.9735,3103.6309,193.1874,3123.2813,191.0688" style="stroke:#94A3B8;stroke-width:1.1458333333333335;"/></g><!--link GV to ND--><g id="link_GV_ND"><path d="M1699.6875,195.6833 C1834.6667,176.3917 2379.6146,105.1625 2825.625,142.7875 C2934.0417,151.9333 3041.6062,173.2888 3104.9603,187.0804 " fill="none" id="GV-to-ND" style="stroke:#94A3B8;stroke-width:1.1458333333333335;"/><polygon fill="none" points="3123.2813,191.0688,3106.2898,180.9735,3103.6309,193.1874,3123.2813,191.0688" style="stroke:#94A3B8;stroke-width:1.1458333333333335;"/></g><!--link QTV to ND--><g id="link_QTV_ND"><path d="M536.8542,197.4646 C685.5938,187.4229 1206.5625,153.6208 1637.0833,142.7875 C1901.125,136.1417 2562.4375,120.5792 2825.625,142.7875 C2934.0417,151.9333 3041.6062,173.2888 3104.9603,187.0804 " fill="none" id="QTV-to-ND" style="stroke:#94A3B8;stroke-width:1.1458333333333335;"/><polygon fill="none" points="3123.2813,191.0688,3106.2898,180.9735,3103.6309,193.1874,3123.2813,191.0688" style="stroke:#94A3B8;stroke-width:1.1458333333333335;"/></g><!--link ND to UC_DK--><g id="link_ND_UC_DK"><path d="M3204.9792,234.2979 C3220.8542,247.8604 3238.7917,264.1521 3253.75,280.2354 C3285.6458,314.5167 3313.9814,354.1637 3330.7835,378.8303 " fill="none" id="ND-to-UC_DK" style="stroke:#94A3B8;stroke-width:1.1458333333333335;"/><polygon fill="#94A3B8" points="3334.3021,383.9958,3332.4679,373.9019,3331.37,379.6913,3325.5806,378.5933,3334.3021,383.9958" style="stroke:#94A3B8;stroke-width:1.1458333333333335;"/></g><!--link ND to UC_DN--><g id="link_ND_UC_DN"><path d="M3205.3021,237.0583 C3209.8646,239.9958 3214.5938,242.6521 3219.375,244.8188 C3298.3021,280.5271 3339.6042,231.2354 3411.0417,280.2354 C3448.1563,305.6938 3468.1783,350.2561 3477.9595,377.6311 " fill="none" id="ND-to-UC_DN" style="stroke:#94A3B8;stroke-width:1.1458333333333335;"/><polygon fill="#94A3B8" points="3480.0625,383.5167,3480.8318,373.2863,3478.31,378.612,3472.9843,376.0903,3480.0625,383.5167" style="stroke:#94A3B8;stroke-width:1.1458333333333335;"/></g><!--link ND to UC_DX--><g id="link_ND_UC_DX"><path d="M3205.0521,237.6417 C3209.6667,240.4646 3214.4792,242.9333 3219.375,244.8188 C3330.0417,287.3188 3650.5521,218.3396 3751.6667,280.2354 C3789.9688,303.6833 3808.7985,349.5003 3817.5589,377.4691 " fill="none" id="ND-to-UC_DX" style="stroke:#94A3B8;stroke-width:1.1458333333333335;"/><polygon fill="#94A3B8" points="3819.4271,383.4333,3820.6011,373.2415,3817.8703,378.4631,3812.6487,375.7324,3819.4271,383.4333" style="stroke:#94A3B8;stroke-width:1.1458333333333335;"/></g><!--link ND to UC_HS--><g id="link_ND_UC_HS"><path d="M3205.125,237.4646 C3209.7292,240.3188 3214.5104,242.85 3219.375,244.8188 C3361.2917,302.3188 3428.1979,205.9333 3562.0833,280.2354 C3604.7708,303.9229 3631.9189,349.9915 3645.6377,377.8874 " fill="none" id="ND-to-UC_HS" style="stroke:#94A3B8;stroke-width:1.1458333333333335;"/><polygon fill="#94A3B8" points="3648.3958,383.4958,3647.9976,373.2443,3646.0974,378.8221,3640.5196,376.9219,3648.3958,383.4958" style="stroke:#94A3B8;stroke-width:1.1458333333333335;"/></g><!--link ND to UC_FD--><g id="link_ND_UC_FD"><path d="M3205.2917,238.0688 C3209.8229,240.7563 3214.5521,243.0896 3219.375,244.8188 C3283.4583,267.7875 4376.3646,267.9333 4444.375,270.8604 C4508.8021,273.6313 4545.0625,233.1833 4589.1667,280.2354 C4649.8646,344.9854 4646.6458,426.2458 4575.625,479.4646 C4531.3021,512.6833 4378.861,522.2323 4294.2464,525.0969 " fill="none" id="ND-to-UC_FD" style="stroke:#94A3B8;stroke-width:1.1458333333333335;"/><polygon fill="#94A3B8" points="4288,525.3083,4297.5106,529.1554,4293.2054,525.1321,4297.2287,520.8268,4288,525.3083" style="stroke:#94A3B8;stroke-width:1.1458333333333335;"/></g><!--link ND to UC_PB--><g id="link_ND_UC_PB"><path d="M3205.0208,237.7354 C3209.6458,240.5375 3214.4583,242.9854 3219.375,244.8188 C3360.9375,297.7354 3765.0521,209.3813 3898.5417,280.2354 C3941.8958,303.2458 3969.0015,350.0708 3982.4806,378.1228 " fill="none" id="ND-to-UC_PB" style="stroke:#94A3B8;stroke-width:1.1458333333333335;"/><polygon fill="#94A3B8" points="3985.1875,383.7563,3984.8828,373.5016,3982.9318,379.0617,3977.3716,377.1107,3985.1875,383.7563" style="stroke:#94A3B8;stroke-width:1.1458333333333335;"/></g><!--link ND to UC_BL--><g id="link_ND_UC_BL"><path d="M3205,237.7875 C3209.625,240.5792 3214.4479,243.0063 3219.375,244.8188 C3394.8438,309.3813 3893.4479,195.2771 4060,280.2354 C4104.6458,303.0063 4133.6871,350.0194 4148.2601,378.1444 " fill="none" id="ND-to-UC_BL" style="stroke:#94A3B8;stroke-width:1.1458333333333335;"/><polygon fill="#94A3B8" points="4151.1354,383.6938,4150.5219,373.4529,4148.7393,379.0693,4143.1228,377.2867,4151.1354,383.6938" style="stroke:#94A3B8;stroke-width:1.1458333333333335;"/></g><!--link ND to UC_CS--><g id="link_ND_UC_CS"><path d="M3205.3125,238.0167 C3209.8438,240.725 3214.5625,243.0688 3219.375,244.8188 C3307.3021,276.8083 3967.5521,267.2146 4061.0417,270.8604 C4149.5,274.3083 4183.5,235.6938 4260,280.2354 C4299.4063,303.1833 4319.7166,349.2594 4329.3416,377.3948 " fill="none" id="ND-to-UC_CS" style="stroke:#94A3B8;stroke-width:1.1458333333333335;"/><polygon fill="#94A3B8" points="4331.3646,383.3083,4332.2725,373.0894,4329.6788,378.3804,4324.3877,375.7867,4331.3646,383.3083" style="stroke:#94A3B8;stroke-width:1.1458333333333335;"/></g><!--link ND to UC_KB--><g id="link_ND_UC_KB"><path d="M3205.3021,238.0375 C3209.8333,240.7354 3214.5521,243.0792 3219.375,244.8188 C3319.2188,280.9333 4068.4688,267.3396 4174.5833,270.8604 C4281.0833,274.3917 4324.1563,223.1938 4414.1667,280.2354 C4450.8854,303.5063 4466.09,349.274 4472.6317,377.3052 " fill="none" id="ND-to-UC_KB" style="stroke:#94A3B8;stroke-width:1.1458333333333335;"/><polygon fill="#94A3B8" points="4474.0521,383.3917,4475.9791,373.315,4472.8684,378.3196,4467.8638,375.2089,4474.0521,383.3917" style="stroke:#94A3B8;stroke-width:1.1458333333333335;"/></g><!--link ND to UC_TC--><g id="link_ND_UC_TC"><path d="M3123.3125,218.1208 C3079.4271,235.2146 3007.2292,260.7771 2942.2917,271.9021 C2913.3021,276.8708 2703.2813,265.7146 2677.7083,280.2354 C2637.6771,302.9646 2616.997,349.6398 2607.2887,377.7752 " fill="none" id="ND-to-UC_TC" style="stroke:#94A3B8;stroke-width:1.1458333333333335;"/><polygon fill="#94A3B8" points="2605.25,383.6833,2612.2468,376.1802,2606.9489,378.7599,2604.3692,373.462,2605.25,383.6833" style="stroke:#94A3B8;stroke-width:1.1458333333333335;"/></g><!--link ND to UC_TB--><g id="link_ND_UC_TB"><path d="M3123.2396,229.1417 C3098.0521,244.6938 3064.4479,262.7458 3031.875,271.9021 C3001.2917,280.5063 2918.0833,267.1 2889.1667,280.2354 C2839.7083,302.7042 2803.2116,350.1982 2784.4407,378.417 " fill="none" id="ND-to-UC_TB" style="stroke:#94A3B8;stroke-width:1.1458333333333335;"/><polygon fill="#94A3B8" points="2780.9792,383.6208,2789.6407,378.1228,2783.8638,379.2843,2782.7023,373.5073,2780.9792,383.6208" style="stroke:#94A3B8;stroke-width:1.1458333333333335;"/></g><!--link ND to UC_DL--><g id="link_ND_UC_DL"><path d="M3123.3542,207.7354 C3062.0417,217.1104 2942.4167,234.6104 2840.2083,244.8188 C2720.8646,256.7354 2407.75,224.2875 2301.6667,280.2354 C2258.0625,303.2354 2230.5749,350.0772 2216.877,378.1397 " fill="none" id="ND-to-UC_DL" style="stroke:#94A3B8;stroke-width:1.1458333333333335;"/><polygon fill="#94A3B8" points="2214.1354,383.7563,2221.9922,377.1591,2216.4201,379.0758,2214.5034,373.5036,2214.1354,383.7563" style="stroke:#94A3B8;stroke-width:1.1458333333333335;"/></g><!--link ND to UC_DKSK--><g id="link_ND_UC_DKSK"><path d="M3123.2188,211.5271 C3056.1042,227.6729 2918.2813,258.725 2799.5833,271.9021 C2768.8542,275.3083 2549.8854,268.0896 2521.4583,280.2354 C2470.6458,301.9438 2432.6725,349.8117 2413.1308,378.2805 " fill="none" id="ND-to-UC_DKSK" style="stroke:#94A3B8;stroke-width:1.1458333333333335;"/><polygon fill="#94A3B8" points="2409.5938,383.4333,2418.3345,378.0621,2412.5413,379.1393,2411.4641,373.346,2409.5938,383.4333" style="stroke:#94A3B8;stroke-width:1.1458333333333335;"/></g><!--link ND to UC_LT--><g id="link_ND_UC_LT"><path d="M3205.3021,238.0583 C3209.8333,240.7458 3214.5521,243.0896 3219.375,244.8188 C3276.3438,265.3188 4248.4375,268.9229 4308.9583,270.8604 C4413.1563,274.1938 4471.1042,205.0583 4543.3333,280.2354 C4604.6771,344.0896 4604.9375,415.8604 4543.3333,479.4646 C4531.3438,491.85 3500.3837,516.6118 3174.5296,524.1431 " fill="none" id="ND-to-UC_LT" style="stroke:#94A3B8;stroke-width:1.1458333333333335;"/><polygon fill="#94A3B8" points="3168.2813,524.2875,3177.75,528.2364,3173.4882,524.1672,3177.5575,519.9053,3168.2813,524.2875" style="stroke:#94A3B8;stroke-width:1.1458333333333335;"/></g><!--link ND to UC_PVP--><g id="link_ND_UC_PVP"><path d="M3125.8958,245.1729 C3116.2292,254.7354 3105.4271,264.2667 3094.375,271.9021 C3086.875,277.0896 3082.7708,274.5792 3075.625,280.2354 C3038.2917,309.7979 3010.9356,352.2472 2995.9981,378.3722 " fill="none" id="ND-to-UC_PVP" style="stroke:#94A3B8;stroke-width:1.1458333333333335;"/><polygon fill="#94A3B8" points="2992.8958,383.7979,3001.1664,377.7275,2995.4811,379.2765,2993.9321,373.5912,2992.8958,383.7979" style="stroke:#94A3B8;stroke-width:1.1458333333333335;"/></g><!--link ND to UC_HT--><g id="link_ND_UC_HT"><path d="M3164.1667,244.9438 C3164.1667,288.1 3164.1667,345.8917 3164.1667,377.2771 " fill="none" id="ND-to-UC_HT" style="stroke:#94A3B8;stroke-width:1.1458333333333335;"/><polygon fill="#94A3B8" points="3164.1667,383.5271,3168.3333,374.1521,3164.1667,378.3188,3160,374.1521,3164.1667,383.5271" style="stroke:#94A3B8;stroke-width:1.1458333333333335;"/></g><!--link ND to UC_BC--><g id="link_ND_UC_BC"><path d="M3123.4063,208.3188 C3062.1563,218.4542 2942.6146,236.9125 2840.2083,244.8188 C2746.0208,252.1 1227.3958,243.8813 1140.2083,280.2354 C1088.4896,301.7979 1049.5715,350.2731 1029.7694,378.7106 " fill="none" id="ND-to-UC_BC" style="stroke:#94A3B8;stroke-width:1.1458333333333335;"/><polygon fill="#94A3B8" points="1026.1979,383.8396,1034.9745,378.5271,1029.1742,379.5654,1028.1359,373.7651,1026.1979,383.8396" style="stroke:#94A3B8;stroke-width:1.1458333333333335;"/></g><!--link HS to UC_TL--><g id="link_HS_UC_TL"><path d="M2765.6146,204.7458 C2634.0521,219.7146 2111.8021,279.1729 2110,280.2354 C2069.1042,304.2875 2044.6445,350.0841 2032.4674,377.8653 " fill="none" id="HS-to-UC_TL" style="stroke:#94A3B8;stroke-width:1.1458333333333335;"/><polygon fill="#94A3B8" points="2029.9583,383.5896,2037.5381,376.6759,2032.0492,378.8194,2029.9057,373.3305,2029.9583,383.5896" style="stroke:#94A3B8;stroke-width:1.1458333333333335;"/></g><!--link SV to UC_TL--><g id="link_SV_UC_TL"><path d="M2336.3438,204.3917 C2284.9792,210.7667 2180.7604,229.3917 2110,280.2354 C2071.8958,307.6104 2046.8651,351.1961 2033.7297,377.9982 " fill="none" id="SV-to-UC_TL" style="stroke:#94A3B8;stroke-width:1.1458333333333335;"/><polygon fill="#94A3B8" points="2030.9792,383.6104,2038.8464,377.0257,2033.2712,378.9336,2031.3634,373.3584,2030.9792,383.6104" style="stroke:#94A3B8;stroke-width:1.1458333333333335;"/></g><!--link GV to UC_TL--><g id="link_GV_UC_TL"><path d="M1699.8229,204.1313 C1752.6458,210.1313 1860.5313,228.2667 1933.9583,280.2354 C1972.4167,307.4542 1997.7848,351.1158 2011.1077,377.9699 " fill="none" id="GV-to-UC_TL" style="stroke:#94A3B8;stroke-width:1.1458333333333335;"/><polygon fill="#94A3B8" points="2013.8854,383.5688,2013.4514,373.3187,2011.5707,378.9031,2005.9863,377.0223,2013.8854,383.5688" style="stroke:#94A3B8;stroke-width:1.1458333333333335;"/></g><!--link GV to UC_SK--><g id="link_GV_UC_SK"><path d="M1699.8125,220.1417 C1722.5521,234.6938 1753.0938,256.35 1775.625,280.2354 C1806.1146,312.5688 1829.2039,352.5741 1842.4643,377.8866 " fill="none" id="GV-to-UC_SK" style="stroke:#94A3B8;stroke-width:1.1458333333333335;"/><polygon fill="#94A3B8" points="1845.3646,383.4229,1844.705,373.1849,1842.9477,378.8093,1837.3233,377.052,1845.3646,383.4229" style="stroke:#94A3B8;stroke-width:1.1458333333333335;"/></g><!--link GV to UC_DSK--><g id="link_GV_UC_DSK"><path d="M1668.3333,244.9438 C1668.3333,287.4125 1668.3333,343.85 1668.3333,375.7458 " fill="none" id="GV-to-UC_DSK" style="stroke:#94A3B8;stroke-width:1.1458333333333335;"/><polygon fill="#94A3B8" points="1668.3333,381.9958,1672.5,372.6208,1668.3333,376.7875,1664.1667,372.6208,1668.3333,381.9958" style="stroke:#94A3B8;stroke-width:1.1458333333333335;"/></g><!--link GV to UC_BD--><g id="link_GV_UC_BD"><path d="M1636.9271,201.9438 C1574.1042,204.4958 1430.5208,217.3396 1331.875,280.2354 C1290.7708,306.4438 1262.8434,351.0839 1248.2705,378.2089 " fill="none" id="GV-to-UC_BD" style="stroke:#94A3B8;stroke-width:1.1458333333333335;"/><polygon fill="#94A3B8" points="1245.3125,383.7146,1253.4199,377.428,1247.7775,379.1265,1246.0789,373.484,1245.3125,383.7146" style="stroke:#94A3B8;stroke-width:1.1458333333333335;"/></g><!--link GV to UC_CH--><g id="link_GV_UC_CH"><path d="M1636.6979,222.7458 C1614.6354,238.0479 1584.8333,259.5271 1560,280.2354 C1518.7188,314.6625 1478.3758,354.5749 1454.2196,379.2103 " fill="none" id="GV-to-UC_CH" style="stroke:#94A3B8;stroke-width:1.1458333333333335;"/><polygon fill="#94A3B8" points="1449.8438,383.6729,1459.3825,379.8962,1453.4903,379.9541,1453.4324,374.0618,1449.8438,383.6729" style="stroke:#94A3B8;stroke-width:1.1458333333333335;"/></g><!--link QTV to UC_DBC--><g id="link_QTV_UC_DBC"><path d="M453.7917,203.4125 C362.8958,208.8708 151.3021,227.1313 107.9167,280.2354 C60.3854,338.4125 58.7396,392.4646 107.9167,449.2563 C166.4375,516.85 428.1876,526.5626 561.0001,527.1355 " fill="none" id="QTV-to-UC_DBC" style="stroke:#94A3B8;stroke-width:1.1458333333333335;"/><polygon fill="#94A3B8" points="567.25,527.1625,557.8931,522.9554,562.0417,527.14,557.8571,531.2887,567.25,527.1625" style="stroke:#94A3B8;stroke-width:1.1458333333333335;"/></g><!--link QTV to UC_KTK--><g id="link_QTV_UC_KTK"><path d="M453.8958,202.4021 C355.5625,205.85 113.0104,220.3813 64.1667,280.2354 C16.6667,338.4333 28.5417,383.1208 64.1667,449.2563 C114.6563,543.0063 434.5423,611.481 573.5319,637.2622 " fill="none" id="QTV-to-UC_KTK" style="stroke:#94A3B8;stroke-width:1.1458333333333335;"/><polygon fill="#94A3B8" points="579.6771,638.4021,571.2192,632.5955,574.5561,637.4522,569.6994,640.7891,579.6771,638.4021" style="stroke:#94A3B8;stroke-width:1.1458333333333335;"/></g><!--link QTV to UC_BCTK--><g id="link_QTV_UC_BCTK"><path d="M503.7604,245.0063 C506.5833,254.2667 510.3125,263.7146 515.2083,271.9021 C523.2083,285.2771 590.0294,347.0327 625.8002,379.6785 " fill="none" id="QTV-to-UC_BCTK" style="stroke:#94A3B8;stroke-width:1.1458333333333335;"/><polygon fill="#94A3B8" points="630.4167,383.8917,626.3007,374.4943,626.5696,380.3807,620.6832,380.6496,630.4167,383.8917" style="stroke:#94A3B8;stroke-width:1.1458333333333335;"/></g><!--link QTV to UC_QLU--><g id="link_QTV_UC_QLU"><path d="M536.75,205.6417 C590.5833,212.9958 685.5104,232.1938 750.625,280.2354 C787.7813,307.6521 811.292,351.1426 823.5107,377.9343 " fill="none" id="QTV-to-UC_QLU" style="stroke:#94A3B8;stroke-width:1.1458333333333335;"/><polygon fill="#94A3B8" points="826.1042,383.6208,826.005,373.3621,823.943,378.8821,818.423,376.82,826.1042,383.6208" style="stroke:#94A3B8;stroke-width:1.1458333333333335;"/></g><!--link QTV to UC_DSK--><g id="link_QTV_UC_DSK"><path d="M536.8438,200.975 C706.6458,199.9542 1349.0104,201.475 1532.9167,280.2354 C1585.2813,302.6625 1627.0794,348.9701 1649.5794,377.3972 " fill="none" id="QTV-to-UC_DSK" style="stroke:#94A3B8;stroke-width:1.1458333333333335;"/><polygon fill="#94A3B8" points="1653.4583,382.2979,1650.9071,372.361,1650.2259,378.214,1644.3729,377.5328,1653.4583,382.2979" style="stroke:#94A3B8;stroke-width:1.1458333333333335;"/></g><!--link UC_PVP to UC_LT--><g id="link_UC_PVP_UC_LT"><path d="M2996.3646,422.8813 C3012.4271,445.0479 3035.5605,476.9671 3052.4251,500.2275 " fill="none" id="UC_PVP-to-UC_LT" style="stroke:#94A3B8;stroke-width:1.1458333333333335;stroke-dasharray:7.0,7.0;"/><polygon fill="#94A3B8" points="3056.0938,505.2875,3053.9641,495.2518,3053.0365,501.0708,3047.2174,500.1433,3056.0938,505.2875" style="stroke:#94A3B8;stroke-width:1.1458333333333335;"/><text fill="#64748B" font-family="Helvetica Neue" font-size="10.4167" font-style="italic" lengthAdjust="spacing" textLength="43.75" x="3040.3229" y="473.0583">&#171;include&#187;</text></g><!--link UC_PB to UC_FD--><g id="link_UC_PB_UC_FD"><path d="M4016.1458,421.1625 C4028.7396,430.0792 4044.8542,440.8813 4060,449.2563 C4105.9688,474.6938 4156.1301,496.019 4191.953,510.269 " fill="none" id="UC_PB-to-UC_FD" style="stroke:#94A3B8;stroke-width:1.1458333333333335;stroke-dasharray:7.0,7.0;"/><polygon fill="#94A3B8" points="4197.7604,512.5792,4190.5894,505.2424,4192.9209,510.6541,4187.5092,512.9856,4197.7604,512.5792" style="stroke:#94A3B8;stroke-width:1.1458333333333335;"/><text fill="#64748B" font-family="Helvetica Neue" font-size="10.4167" font-style="italic" lengthAdjust="spacing" textLength="41.6667" x="4121.2396" y="473.0583">&#171;extend&#187;</text></g><!--link UC_DBC to UC_KTK--><g id="link_UC_DBC_UC_KTK"><path d="M642.2917,547.4333 C642.2917,570.1208 642.2917,601.7042 642.2917,624.3396 " fill="none" id="UC_DBC-to-UC_KTK" style="stroke:#94A3B8;stroke-width:1.1458333333333335;stroke-dasharray:7.0,7.0;"/><polygon fill="#94A3B8" points="642.2917,630.5896,646.4583,621.2146,642.2917,625.3813,638.125,621.2146,642.2917,630.5896" style="stroke:#94A3B8;stroke-width:1.1458333333333335;"/><text fill="#64748B" font-family="Helvetica Neue" font-size="10.4167" font-style="italic" lengthAdjust="spacing" textLength="41.6667" x="647.5" y="598.35">&#171;extend&#187;</text></g><!--link UC_BC to UC_DBC--><g id="link_UC_BC_UC_DBC"><path d="M980.2708,421.4646 C961.6667,430.4646 938.0208,441.2563 916.25,449.2563 C841.6979,476.6833 758.8218,498.6388 702.9572,512.2743 " fill="none" id="UC_BC-to-UC_DBC" style="stroke:#94A3B8;stroke-width:1.1458333333333335;stroke-dasharray:7.0,7.0;"/><polygon fill="#94A3B8" points="696.8854,513.7563,706.981,515.5811,701.9452,512.5213,705.0051,507.4854,696.8854,513.7563" style="stroke:#94A3B8;stroke-width:1.1458333333333335;"/><text fill="#64748B" font-family="Helvetica Neue" font-size="10.4167" font-style="italic" lengthAdjust="spacing" textLength="43.75" x="892.3646" y="473.0583">&#171;include&#187;</text></g><!--link GV to GMN81--><g id="link_GV_GMN81"><path d="M1636.7708,202.3708 C1465.5729,208.0375 652.2813,237.0479 549.5833,280.2354 C498.1042,301.8917 452.75,350.9542 429.2083,379.8396 " fill="none" id="GV-GMN81" style="stroke:#94A3B8;stroke-width:1.1458333333333335;stroke-dasharray:7.0,7.0;"/></g><!--link QTV to GMN84--><g id="link_QTV_GMN84"><path d="M453.9583,211.6625 C412.6771,223.3708 348.9583,245.5063 302.7083,280.2354 C265.7292,308.0063 234.9271,353.1208 218.5521,380.0167 " fill="none" id="QTV-GMN84" style="stroke:#94A3B8;stroke-width:1.1458333333333335;stroke-dasharray:7.0,7.0;"/></g><!--SRC=[hLXFRnj55B_xKpmSYJyXIUFOQH9K8iLUEwdikcxNYLe92OrtnzwLrxlkxZXjW4gW7df022guL0WfeUg1GbIAk10BSTYAxs4-2MzcrjxPNQS7p1uYpxptvltcz_xCJDvY5XrGCAW_SYXnLxqHSsoNvdBlm8VyWmOvmJavo35l2Co3ZiUODm3Jzgd1RC_D1NtR7HAV3C3rJ1hG8MniAvC-SVjySdDTcHmIqxJT7fIKkS0YfdUVptQ94r1r2M_acXNFTwaFXL8Chtqoz7e-6Led4SJOHADTCd9OpNDPa-0UyzTTHlqLq6dFet1uVGKEg7DCcMqGQD8HNO60kC5gG7sxcv-_Zcv_Gg6meGZRDdDeBDgUAs8d3aNI73F6lMSmpyz05hDIdTodWJUWQM7PyqtgLpm7hPSAT6Eds9clqhPie-_I8832MYcjSXcgmm1JWU2VD30KyFaoCVgzA1G2GLTySnHLc4R7tAI5h9BAw0n22rsGNXP1D9zOUAT4YftjovGK1h8giU_Y9SAOdenSodZo4xVdACMov_lU_I0RLZvz6MOXLADLI0ivdCZwQcchjDsPfo0tipvN9E3QZ3Ys4MDjUYpBCf-S5-GExQIrr41q3RDOCbCQ2kojxUBcUdUENA8kv7AC5mkqBLeUkUu9_FFvTo8PApmPDPjWYGy-SikJyHCNZeaDp0z_0xVtzw-JyGyscE4Vs3AEmrCOMfEBim4SsoYqxCduyH2E9-Fdirt_nm_DzohjcxTr0Onq0kOJWq6-cK2G1oSy7K0FKHehK08YQjn0_y2ioVWHz2SNVucVFvD50ScrCm1804rjAZoOZByo8B1TImWEzAb0nodaA7pX2e5-D1Nis-6PfqZsPv9Reyd5CnTvduo_L1HkjOzokGCTLZ_RvOxre-cl_TalL9d-N3mA-bszNRq1vPk7JMtlzjr55voLCEHdgQUV18mE935tTVWqbmCygsHJohV3KnlwbYV8U1kGuMyX-FjCQBSAi5HThsxLQcW4-8racuFywszUFy84xOT_vY7-qEImyh5MdwlhOYAV3_DfvMPIkSALf2u3QmPcfeyXdxVu0mpcSvPP_0ugFqnizmPM4zSFd_7Ldzfodnkmf5LgbUfMUfztw02wb9hvz2PhsbmS7MGpezig9tNBuI-OhGv2FdVX2hQ8yDoG2OtAvKQA4Cic44mknecrfMubHKOTgv51Xsyn6vPwEKD64sb-YILWozHl5M6fLgtjL8ff6jgyEHdMw0JxJxoqNBTToLB6hF1tmSQPbrTLin1aHJEP6Xn32J5W86h5UQ6umZMVORFaIUlmRZXISaDBKTSMkWvMTiPWXgXnMLuZv-DNqBVL7K_pMwzd766JcMCG6wLDDC4buqoTJbiNwFLyx4LO9Cbgo018kh1OyOo5rqymyqUIkqtahbZTpfPhqX1RtiLBOtgU3AQPrsYdTcM5PuOLEO3MSIjTNgsZLZP4bYmmPaLbgneSj3DRYhgmWuIZe_4NQ1ZLv5NSJAssLTKooIZOliBvFYUOxUEdqZJchgozoS88Vnpnul_QdkwySf31LKTg7k63G8P98jf2H8NQPcqdZQZCpnX37ZJHWQs0gSoFV6Tgf5Q8bjQkMrvu9jCtQj9AmjVRzSk0y3FvYSZa5_aOILfVOH_d_4Hft6eS2bOU_W-7N7bFhyAxoQFzFN7pC13dJvYBekommuY_7WomBTYpUz6Y09eQhAxkHcUJCcYgWplA04-PU82jFXvWBuy7sAlZGKMrgQjgs26LWIhH6WbikeeEor5nYwMcm5D5c36B1mWlF5VmrXI5P7hYA5rpKHVyHXKHq12NgjbWSV3x4dSWSbdU1C3bXpkMB-QJ5HynY_hQLu770unRFD0IexAc3B3FBBvRVllas-qdEXIy3_UK2-sYRiGLDzeF9fWov3r76OgUeenvrr2DaOp5jtpTDPoHIJ55gmyOTKsn_tiZulBOFeOUCl6Iy0ucdlgB-fFb1cjhKHa2V03NhjaIm-wka9TXAgzfKau5CYb6ogPYf2iZHkbKp3MJgo_ELlDckwelkepBtzA-tRCOU5t-qW5eJCRV3-LRCFDCGt7F6_2ZnvZ58Nh4YgQ-XWgb-9shF1k1UNW34iVuMex7bdlEIV_HV-KG03xRWDSvFaVZH_BoibhooykeCh_ikTCNKR941-CRVF4N88Wouxgl313N91VT9KjEEEHFz7lnANeixlJYJgTu-1S0]--></g></svg>